HIERARCHY
ROOT Hips
{
    OFFSET 0.000000 0.000000 0.000000
    CHANNELS 6 Xposition Yposition Zposition Zrotation Xrotation Yrotation
    JOINT Spine
    {
        OFFSET -0.000000 7.546388 0.000000
        CHANNELS 3 Zrotation Xrotation Yrotation
        JOINT Spine1
        {
            OFFSET -0.000000 23.085974 0.000000
            CHANNELS 3 Zrotation Xrotation Yrotation
            JOINT Neck
            {
                OFFSET -0.000000 22.991167 2.090106
                CHANNELS 3 Zrotation Xrotation Yrotation
                JOINT Head
                {
                    OFFSET -0.000000 12.884076 -1.840582
                    CHANNELS 3 Zrotation Xrotation Yrotation
                    End Site
                    {
                        OFFSET -0.000000 23.007280 0.000000
                    }
                }
            }
            JOINT LeftShoulder
            {
                OFFSET 3.643021 20.585043 -0.013032
                CHANNELS 3 Zrotation Xrotation Yrotation
                JOINT LeftArm
                {
                    OFFSET 12.409293 0.000000 0.000000
                    CHANNELS 3 Zrotation Xrotation Yrotation
                    JOINT LeftForeArm
                    {
                        OFFSET 33.480854 0.000000 0.000000
                        CHANNELS 3 Zrotation Xrotation Yrotation
                        JOINT LeftHand
                        {
                            OFFSET 17.906601 0.000000 0.000000
                            CHANNELS 3 Zrotation Xrotation Yrotation
                            End Site
                            {
                                OFFSET 13.804369 0.000000 0.000000
                            }
                        }
                    }
                }
            }
            JOINT RightShoulder
            {
                OFFSET -3.660726 20.585043 -0.013032
                CHANNELS 3 Zrotation Xrotation Yrotation
                JOINT RightArm
                {
                    OFFSET -12.409293 0.000000 0.000000
                    CHANNELS 3 Zrotation Xrotation Yrotation
                    JOINT RightForeArm
                    {
                        OFFSET -33.480854 0.000000 0.000000
                        CHANNELS 3 Zrotation Xrotation Yrotation
                        JOINT RightHand
                        {
                            OFFSET -17.906601 0.000000 0.000000
                            CHANNELS 3 Zrotation Xrotation Yrotation
                            End Site
                            {
                                OFFSET -13.804369 0.000000 0.000000
                            }
                        }
                    }
                }
            }
        }
    }
    JOINT LeftUpLeg
    {
        OFFSET 9.202911 0.000000 0.000000
        CHANNELS 3 Zrotation Xrotation Yrotation
        JOINT LeftLeg
        {
            OFFSET -0.000000 -33.260441 0.000000
            CHANNELS 3 Zrotation Xrotation Yrotation
            JOINT LeftFoot
            {
                OFFSET -0.000000 -40.386738 0.000000
                CHANNELS 3 Zrotation Xrotation Yrotation
                JOINT LeftToeBase
                {
                    OFFSET -0.000000 -5.981893 13.804369
                    CHANNELS 3 Zrotation Xrotation Yrotation
                    End Site
                    {
                        OFFSET -0.000000 0.000000 3.681165
                    }
                }
            }
        }
    }
    JOINT RightUpLeg
    {
        OFFSET -9.202911 0.000000 0.000000
        CHANNELS 3 Zrotation Xrotation Yrotation
        JOINT RightLeg
        {
            OFFSET -0.000000 -33.260441 0.000000
            CHANNELS 3 Zrotation Xrotation Yrotation
            JOINT RightFoot
            {
                OFFSET -0.000000 -40.386738 0.000000
                CHANNELS 3 Zrotation Xrotation Yrotation
                JOINT RightToeBase
                {
                    OFFSET -0.000000 -5.981893 13.804369
                    CHANNELS 3 Zrotation Xrotation Yrotation
                    End Site
                    {
                        OFFSET -0.000000 0.000000 3.681165
                    }
                }
            }
        }
    }
}
MOTION
Frames:    5
Frame Time:    0.010000
17.111095    75.138794    -9.769840    -2.643075    -1.117593    -46.103252    4.959995    0.433489    3.300622    -4.514959    6.320085    3.568801    6.540960    -1.305377    21.146997    -11.429974    5.815488    19.991785    8.703815    -4.308422    -12.264305    -47.571133    7.073168    -27.887436    64.183472    -47.127899    -68.531876    -4.934772    -2.508214    28.502575    -6.795079    -0.667574    -4.621669    22.955294    50.670883    82.507172    -13.032998    -42.273533    129.308914    -1.260905    -17.949783    -25.950302    27.942291    -27.569399    24.152691    -3.501616    43.541920    11.715476    -10.960799    7.611937    -4.171236    0.000000    0.000000    0.000000    -20.729994    0.025213    -10.272750    12.801667    36.649281    -3.232766    23.613317    -20.956575    -23.310328    0.000000    0.000000    0.000000    
17.130642    75.546097    -9.570774    -2.473003    -0.957061    -46.250103    5.369833    0.515122    3.306889    -4.826615    5.528107    3.564222    6.296482    -0.568982    21.132204    -11.458331    5.643651    20.037676    8.063644    -3.913067    -12.515741    -47.081913    7.233380    -27.355556    64.329323    -47.105759    -68.251709    -4.799758    -2.584213    28.445677    -6.487756    -0.337678    -4.097930    22.725504    50.621750    82.511360    -13.021045    -42.202114    129.177658    -1.145194    -17.991470    -25.952963    27.307251    -26.878036    23.710873    -3.491494    42.195248    11.874382    -10.821586    7.806906    -3.951607    0.000000    0.000000    0.000000    -21.187037    -0.265700    -9.310279    12.558033    36.728355    -2.259097    25.877550    -19.433167    -21.690069    0.000000    0.000000    0.000000    
17.131912    75.700653    -9.502943    -2.390351    -0.929070    -46.337414    5.701366    0.590546    3.167392    -5.277694    5.367541    3.444383    6.154570    -0.684516    21.303389    -11.229303    5.769830    20.265079    8.197882    -3.993237    -12.155271    -47.125156    7.118203    -26.999184    63.792381    -47.102322    -68.842728    -4.708100    -2.524411    28.629118    -6.476751    -0.432401    -3.799488    22.663078    50.703815    82.793465    -13.074641    -42.260868    129.039520    -0.723186    -18.130955    -25.841612    27.023108    -26.579002    23.484476    -3.513227    41.623909    12.148429    -10.798992    7.971252    -3.963990    0.000000    0.000000    0.000000    -21.376474    -0.466794    -8.801308    12.440378    36.936672    -1.923354    26.205227    -18.920750    -21.212486    0.000000    0.000000    0.000000    
17.115147    75.811340    -9.462702    -2.306766    -0.911373    -46.466331    5.754814    0.500165    3.167976    -5.268573    5.541013    3.448275    5.859445    -1.022666    21.341967    -11.010277    5.982149    20.373098    8.295519    -4.112262    -11.956907    -47.093742    7.362444    -27.030426    64.733711    -47.248505    -67.816139    -5.009292    -2.871886    28.492361    -6.760437    -0.512692    -3.647364    22.677523    50.592304    83.054405    -13.089471    -42.263721    129.082428    -0.859252    -18.046280    -25.866861    26.836489    -26.282429    23.362871    -3.553448    41.150166    12.306805    -10.830972    8.032961    -3.920774    0.000000    0.000000    0.000000    -21.519598    -0.712932    -8.068282    12.387900    37.251823    -1.669130    24.348211    -18.376713    -21.280918    0.000000    0.000000    0.000000    
17.073627    75.864433    -9.460162    -2.234224    -0.924632    -46.553078    5.735563    0.457396    3.170817    -5.231318    5.642159    3.451679    5.557934    -1.250522    21.333818    -10.760800    6.069469    20.430168    8.252550    -4.128510    -11.744013    -46.767567    7.414687    -27.089071    64.942215    -47.323406    -67.517708    -5.177844    -3.123030    28.541073    -7.006061    -0.620357    -3.504024    22.810318    50.532433    83.204803    -13.100350    -42.234547    129.104630    -1.042087    -17.930864    -25.923363    26.746393    -26.104445    23.287840    -3.626743    40.877762    12.416930    -10.881336    8.123400    -3.837008    0.000000    0.000000    0.000000    -21.541637    -0.917172    -7.396195    12.178793    37.604214    -1.362312    21.504303    -18.140785    -21.552385    0.000000    0.000000    0.000000    
